<svg width="71" height="48" viewBox="0 0 71 48" fill="none" xmlns="http://www.w3.org/2000/svg">
<rect x="0.646484" y="0.5" width="69" height="47" rx="5.5" fill="white" stroke="#D9D9D9"/>
<path fill-rule="evenodd" clip-rule="evenodd" d="M35.6465 34.3139C33.2633 36.3704 30.172 37.6119 26.794 37.6119C19.2567 37.6119 13.1465 31.4308 13.1465 23.806C13.1465 16.1811 19.2567 10 26.794 10C30.172 10 33.2633 11.2415 35.6465 13.2981C38.0296 11.2415 41.121 10 44.4989 10C52.0363 10 58.1465 16.1811 58.1465 23.806C58.1465 31.4308 52.0363 37.6119 44.4989 37.6119C41.121 37.6119 38.0296 36.3704 35.6465 34.3139Z" fill="#ED0006"/>
<path fill-rule="evenodd" clip-rule="evenodd" d="M35.6465 34.3139C38.5809 31.7816 40.4416 28.0136 40.4416 23.806C40.4416 19.5983 38.5809 15.8303 35.6465 13.2981C38.0296 11.2415 41.121 10 44.4989 10C52.0363 10 58.1465 16.1811 58.1465 23.806C58.1465 31.4308 52.0363 37.6119 44.4989 37.6119C41.121 37.6119 38.0296 36.3704 35.6465 34.3139Z" fill="#F9A000"/>
<path fill-rule="evenodd" clip-rule="evenodd" d="M35.6466 13.2979C38.581 15.8301 40.4416 19.5981 40.4416 23.8057C40.4416 28.0133 38.581 31.7813 35.6466 34.3136C32.7122 31.7813 30.8516 28.0133 30.8516 23.8057C30.8516 19.5981 32.7122 15.8301 35.6466 13.2979Z" fill="#FF5E00"/>
</svg>
